# xmcd
# 
# Track frame offsets:
#     150
#     59828
#     85510
#     118030
#     165880
#     191682
# 
# Disc length: 3010
# 
# Revision: 0
# Processed by: cddbd v1.5.2PL0 Copyright (c) Steve Scherf et al.
# Submitted via: BonkEnc v1.0.8
# 
DISCID=460bc006
DTITLE=Ahmad Mansour - Free Speech
DYEAR=2006
DGENRE=Comtenporary Jazz
TTITLE0=Free Speech
TTITLE1=Happenstance
TTITLE2=Modulator
TTITLE3=Nebula
TTITLE4=Rule and Divide
TTITLE5=Out on a Limb
EXTD=
EXTT0=
EXTT1=
EXTT2=
EXTT3=
EXTT4=
EXTT5=
PLAYORDER=
